RobotoDelta-wghtmax-old.ufo
<glyph name="one" format="1">
  <advance width="1156"/>
  <unicode hex="0031"/>
  <outline>
    <contour>
      <point x="517" y="0" type="line"/>
      <point x="803" y="0" type="line"/>
      <point x="803" y="1476" type="line"/>
      <point x="677" y="1476" type="line"/>
      <point x="171" y="1304" type="line"/>
      <point x="171" y="1074" type="line"/>
      <point x="517" y="1197" type="line"/>
    </contour>
  </outline>
</glyph>
<glyph name="three" format="1">
  <advance width="1156"/>
  <unicode hex="0033"/>
  <outline>
    <contour>
      <point x="79" y="360" type="line" smooth="yes"/>
      <point x="79" y="195"/>
      <point x="341" y="-31"/>
      <point x="580" y="-31" type="qcurve" smooth="yes"/>
      <point x="817" y="-31"/>
      <point x="1093" y="207"/>
      <point x="1093" y="395" type="qcurve" smooth="yes"/>
      <point x="1093" y="561"/>
      <point x="908" y="743"/>
      <point x="798" y="766" type="qcurve"/>
      <point x="798" y="766" type="line"/>
      <point x="904" y="806"/>
      <point x="1038" y="968"/>
      <point x="1038" y="1111" type="qcurve" smooth="yes"/>
      <point x="1039" y="1275"/>
      <point x="800" y="1474"/>
      <point x="583" y="1474" type="qcurve" smooth="yes"/>
      <point x="365" y="1474"/>
      <point x="120" y="1257"/>
      <point x="120" y="1124" type="qcurve" smooth="yes"/>
      <point x="120" y="1085" type="line"/>
      <point x="399" y="1085" type="line"/>
      <point x="399" y="1116" type="line" smooth="yes"/>
      <point x="399" y="1193"/>
      <point x="492" y="1263"/>
      <point x="580" y="1263" type="qcurve" smooth="yes"/>
      <point x="677" y="1263"/>
      <point x="766" y="1168"/>
      <point x="766" y="1063" type="qcurve" smooth="yes"/>
      <point x="766" y="961"/>
      <point x="660" y="863"/>
      <point x="530" y="863" type="qcurve" smooth="yes"/>
      <point x="377" y="863" type="line"/>
      <point x="377" y="652" type="line"/>
      <point x="558" y="652" type="line" smooth="yes"/>
      <point x="687" y="652"/>
      <point x="807" y="539"/>
      <point x="807" y="420" type="qcurve" smooth="yes"/>
      <point x="807" y="296"/>
      <point x="705" y="181"/>
      <point x="578" y="181" type="qcurve" smooth="yes"/>
      <point x="459" y="181"/>
      <point x="358" y="269"/>
      <point x="358" y="372" type="qcurve" smooth="yes"/>
      <point x="358" y="391" type="line"/>
      <point x="79" y="391" type="line"/>
    </contour>
  </outline>
</glyph>
<glyph name="seven" format="1">
  <advance width="1156"/>
  <unicode hex="0037"/>
  <outline>
    <contour>
      <point x="229" y="0" type="line"/>
      <point x="511" y="0" type="line"/>
      <point x="985" y="1339" type="line"/>
      <point x="985" y="1456" type="line"/>
      <point x="78" y="1456" type="line"/>
      <point x="78" y="1249" type="line"/>
      <point x="675" y="1249" type="line"/>
    </contour>
  </outline>
</glyph>
<glyph name="nine" format="1">
  <advance width="1156"/>
  <unicode hex="0039"/>
  <outline>
    <contour>
      <point x="65" y="990" type="qcurve" smooth="yes"/>
      <point x="65" y="750"/>
      <point x="314" y="506"/>
      <point x="484" y="506" type="qcurve" smooth="yes"/>
      <point x="655" y="506"/>
      <point x="859" y="695"/>
      <point x="893" y="837" type="qcurve"/>
      <point x="841" y="1069" type="line"/>
      <point x="815" y="874"/>
      <point x="678" y="716"/>
      <point x="568" y="716" type="qcurve" smooth="yes"/>
      <point x="460" y="716"/>
      <point x="345" y="851"/>
      <point x="345" y="992" type="qcurve" smooth="yes"/>
      <point x="345" y="1133"/>
      <point x="457" y="1270"/>
      <point x="571" y="1270" type="qcurve" smooth="yes"/>
      <point x="698" y="1270"/>
      <point x="825" y="1057"/>
      <point x="825" y="840" type="qcurve" smooth="yes"/>
      <point x="825" y="793" type="line" smooth="yes"/>
      <point x="825" y="492"/>
      <point x="580" y="178"/>
      <point x="326" y="178" type="qcurve" smooth="yes"/>
      <point x="259" y="178" type="line"/>
      <point x="259" y="-35" type="line"/>
      <point x="328" y="-35" type="line" smooth="yes"/>
      <point x="706" y="-35"/>
      <point x="1106" y="408"/>
      <point x="1106" y="797" type="qcurve" smooth="yes"/>
      <point x="1106" y="817" type="line" smooth="yes"/>
      <point x="1106" y="1142"/>
      <point x="824" y="1479"/>
      <point x="564" y="1479" type="qcurve" smooth="yes"/>
      <point x="331" y="1479"/>
      <point x="65" y="1215"/>
    </contour>
  </outline>
</glyph>
<glyph name="A" format="1">
  <advance width="1225"/>
  <unicode hex="0041"/>
  <outline>
    <contour>
      <point x="0" y="0" type="line"/>
      <point x="239" y="0" type="line"/>
      <point x="572" y="1080" type="line" smooth="yes"/>
      <point x="579" y="1104"/>
      <point x="585" y="1142"/>
      <point x="585" y="1150" type="qcurve"/>
      <point x="591" y="1150" type="line"/>
      <point x="592" y="1142"/>
      <point x="596" y="1105"/>
      <point x="603" y="1080" type="qcurve" smooth="yes"/>
      <point x="932" y="0" type="line"/>
      <point x="1225" y="0" type="line"/>
      <point x="765" y="1466" type="line"/>
      <point x="464" y="1466" type="line"/>
    </contour>
    <contour>
      <point x="208" y="365" type="line"/>
      <point x="1004" y="365" type="line"/>
      <point x="928" y="578" type="line"/>
      <point x="283" y="578" type="line"/>
    </contour>
    <contour>
      <point x="640" y="1432" type="move" name="top"/>
    </contour>
  </outline>
</glyph>
<glyph name="B" format="1">
  <advance width="1324"/>
  <unicode hex="0042"/>
  <outline>
    <contour>
      <point x="170" y="0" type="line"/>
      <point x="730" y="0" type="line" smooth="yes"/>
      <point x="984" y="0"/>
      <point x="1224" y="219"/>
      <point x="1224" y="417" type="qcurve" smooth="yes"/>
      <point x="1224" y="572"/>
      <point x="1081" y="736"/>
      <point x="971" y="761" type="qcurve"/>
      <point x="971" y="774" type="line"/>
      <point x="1068" y="802"/>
      <point x="1187" y="947"/>
      <point x="1187" y="1083" type="qcurve" smooth="yes"/>
      <point x="1187" y="1261"/>
      <point x="962" y="1456"/>
      <point x="699" y="1456" type="qcurve" smooth="yes"/>
      <point x="170" y="1456" type="line"/>
    </contour>
    <contour>
      <point x="452" y="212" type="line"/>
      <point x="452" y="652" type="line"/>
      <point x="708" y="652" type="line" smooth="yes"/>
      <point x="814" y="652"/>
      <point x="927" y="542"/>
      <point x="927" y="431" type="qcurve" smooth="yes"/>
      <point x="927" y="323"/>
      <point x="805" y="212"/>
      <point x="701" y="212" type="qcurve" smooth="yes"/>
    </contour>
    <contour>
      <point x="452" y="863" type="line"/>
      <point x="452" y="1243" type="line"/>
      <point x="674" y="1243" type="line" smooth="yes"/>
      <point x="785" y="1243"/>
      <point x="893" y="1159"/>
      <point x="893" y="1055" type="qcurve" smooth="yes"/>
      <point x="893" y="954"/>
      <point x="782" y="863"/>
      <point x="678" y="863" type="qcurve" smooth="yes"/>
    </contour>
  </outline>
</glyph>
<glyph name="D" format="1">
  <advance width="1421"/>
  <unicode hex="0044"/>
  <outline>
    <contour>
      <point x="170" y="0" type="line"/>
      <point x="623" y="0" type="line" smooth="yes"/>
      <point x="944" y="0"/>
      <point x="1319" y="387"/>
      <point x="1319" y="699" type="qcurve" smooth="yes"/>
      <point x="1319" y="767" type="line" smooth="yes"/>
      <point x="1319" y="1092"/>
      <point x="949" y="1456"/>
      <point x="640" y="1456" type="qcurve" smooth="yes"/>
      <point x="170" y="1456" type="line"/>
    </contour>
    <contour>
      <point x="458" y="212" type="line"/>
      <point x="458" y="1242" type="line"/>
      <point x="640" y="1242" type="line" smooth="yes"/>
      <point x="819" y="1242"/>
      <point x="1020" y="1007"/>
      <point x="1020" y="775" type="qcurve" smooth="yes"/>
      <point x="1020" y="694" type="line" smooth="yes"/>
      <point x="1020" y="472"/>
      <point x="817" y="212"/>
      <point x="625" y="212" type="qcurve" smooth="yes"/>
    </contour>
  </outline>
</glyph>
<glyph name="E" format="1">
  <advance width="1214"/>
  <unicode hex="0045"/>
  <outline>
    <contour>
      <point x="170" y="0" type="line"/>
      <point x="1146" y="0" type="line"/>
      <point x="1146" y="214" type="line"/>
      <point x="458" y="214" type="line"/>
      <point x="458" y="643" type="line"/>
      <point x="1050" y="643" type="line"/>
      <point x="1050" y="857" type="line"/>
      <point x="458" y="857" type="line"/>
      <point x="458" y="1242" type="line"/>
      <point x="1137" y="1242" type="line"/>
      <point x="1137" y="1456" type="line"/>
      <point x="170" y="1456" type="line"/>
    </contour>
    <contour>
      <point x="626" y="1432" type="move" name="top"/>
    </contour>
  </outline>
</glyph>
<glyph name="G" format="1">
  <advance width="1399"/>
  <unicode hex="0047"/>
  <outline>
    <contour>
      <point x="115" y="689" type="line" smooth="yes"/>
      <point x="115" y="364"/>
      <point x="462" y="-30"/>
      <point x="749" y="-30" type="qcurve" smooth="yes"/>
      <point x="975" y="-30"/>
      <point x="1251" y="95"/>
      <point x="1319" y="171" type="qcurve"/>
      <point x="1319" y="756" type="line"/>
      <point x="696" y="756" type="line"/>
      <point x="696" y="545" type="line"/>
      <point x="1036" y="545" type="line"/>
      <point x="1036" y="254" type="line"/>
      <point x="1012" y="235"/>
      <point x="891" y="184"/>
      <point x="760" y="184" type="qcurve" smooth="yes"/>
      <point x="595" y="184"/>
      <point x="412" y="435"/>
      <point x="412" y="678" type="qcurve" smooth="yes"/>
      <point x="412" y="785" type="line" smooth="yes"/>
      <point x="412" y="1020"/>
      <point x="584" y="1272"/>
      <point x="750" y="1272" type="qcurve" smooth="yes"/>
      <point x="883" y="1272"/>
      <point x="1022" y="1145"/>
      <point x="1028" y="1045" type="qcurve" smooth="yes"/>
      <point x="1029" y="1021" type="line"/>
      <point x="1314" y="1021" type="line"/>
      <point x="1313" y="1043" type="line" smooth="yes"/>
      <point x="1299" y="1247"/>
      <point x="1016" y="1487"/>
      <point x="747" y="1487" type="qcurve" smooth="yes"/>
      <point x="444" y="1487"/>
      <point x="115" y="1091"/>
      <point x="115" y="777" type="qcurve" smooth="yes"/>
    </contour>
  </outline>
</glyph>
<glyph name="H" format="1">
  <advance width="1498"/>
  <unicode hex="0048"/>
  <outline>
    <contour>
      <point x="170" y="0" type="line"/>
      <point x="458" y="0" type="line"/>
      <point x="458" y="633" type="line"/>
      <point x="1040" y="633" type="line"/>
      <point x="1040" y="0" type="line"/>
      <point x="1328" y="0" type="line"/>
      <point x="1328" y="1456" type="line"/>
      <point x="1040" y="1456" type="line"/>
      <point x="1040" y="867" type="line"/>
      <point x="458" y="867" type="line"/>
      <point x="458" y="1456" type="line"/>
      <point x="170" y="1456" type="line"/>
    </contour>
  </outline>
</glyph>
<glyph name="K" format="1">
  <advance width="1261"/>
  <unicode hex="004B"/>
  <outline>
    <contour>
      <point x="170" y="0" type="line"/>
      <point x="458" y="0" type="line"/>
      <point x="458" y="498" type="line"/>
      <point x="1209" y="1456" type="line"/>
      <point x="935" y="1456" type="line"/>
      <point x="458" y="820" type="line"/>
      <point x="458" y="1456" type="line"/>
      <point x="170" y="1456" type="line"/>
    </contour>
    <contour>
      <point x="939" y="0" type="line"/>
      <point x="1281" y="0" type="line"/>
      <point x="672" y="936" type="line"/>
      <point x="492" y="716" type="line"/>
    </contour>
  </outline>
</glyph>
<glyph name="N" format="1">
  <advance width="1417"/>
  <unicode hex="004E"/>
  <outline>
    <contour>
      <point x="170" y="0" type="line"/>
      <point x="400" y="0" type="line"/>
      <point x="400" y="867" type="line" smooth="yes"/>
      <point x="400" y="923"/>
      <point x="393" y="1031"/>
      <point x="390" y="1066" type="qcurve"/>
      <point x="394" y="1066" type="line"/>
      <point x="406" y="1031"/>
      <point x="438" y="958"/>
      <point x="462" y="905" type="qcurve"/>
      <point x="961" y="0" type="line"/>
      <point x="1247" y="0" type="line"/>
      <point x="1247" y="1456" type="line"/>
      <point x="1020" y="1456" type="line"/>
      <point x="1020" y="638" type="line" smooth="yes"/>
      <point x="1020" y="581"/>
      <point x="1023" y="511"/>
      <point x="1026" y="466" type="qcurve"/>
      <point x="1013" y="466" type="line"/>
      <point x="1004" y="501"/>
      <point x="951" y="602"/>
      <point x="932" y="642" type="qcurve"/>
      <point x="485" y="1456" type="line"/>
      <point x="170" y="1456" type="line"/>
    </contour>
    <contour>
      <point x="682" y="1432" type="move" name="top"/>
    </contour>
  </outline>
</glyph>
<glyph name="P" format="1">
  <advance width="1250"/>
  <unicode hex="0050"/>
  <outline>
    <contour>
      <point x="170" y="0" type="line"/>
      <point x="458" y="0" type="line"/>
      <point x="458" y="546" type="line"/>
      <point x="704" y="546" type="line" smooth="yes"/>
      <point x="956" y="546"/>
      <point x="1202" y="801"/>
      <point x="1202" y="1009" type="qcurve" smooth="yes"/>
      <point x="1202" y="1201"/>
      <point x="955" y="1456"/>
      <point x="704" y="1456" type="qcurve" smooth="yes"/>
      <point x="170" y="1456" type="line"/>
    </contour>
    <contour>
      <point x="458" y="759" type="line"/>
      <point x="458" y="1243" type="line"/>
      <point x="673" y="1243" type="line" smooth="yes"/>
      <point x="797" y="1243"/>
      <point x="909" y="1126"/>
      <point x="909" y="1008" type="qcurve" smooth="yes"/>
      <point x="909" y="884"/>
      <point x="797" y="759"/>
      <point x="673" y="759" type="qcurve" smooth="yes"/>
    </contour>
  </outline>
</glyph>
<glyph name="Q" format="1">
  <advance width="1494"/>
  <unicode hex="0051"/>
  <outline>
    <contour>
      <point x="115" y="691" type="line" smooth="yes"/>
      <point x="115" y="360"/>
      <point x="491" y="-16"/>
      <point x="748" y="-16" type="qcurve" smooth="yes"/>
      <point x="1016" y="-16"/>
      <point x="1379" y="361"/>
      <point x="1379" y="691" type="qcurve" smooth="yes"/>
      <point x="1379" y="772" type="line" smooth="yes"/>
      <point x="1379" y="1103"/>
      <point x="1032" y="1485"/>
      <point x="746" y="1485" type="qcurve" smooth="yes"/>
      <point x="468" y="1485"/>
      <point x="115" y="1102"/>
      <point x="115" y="771" type="qcurve" smooth="yes"/>
    </contour>
    <contour>
      <point x="412" y="682" type="qcurve" smooth="yes"/>
      <point x="412" y="781" type="line" smooth="yes"/>
      <point x="412" y="1021"/>
      <point x="587" y="1266"/>
      <point x="745" y="1266" type="qcurve" smooth="yes"/>
      <point x="908" y="1266"/>
      <point x="1082" y="1019"/>
      <point x="1082" y="782" type="qcurve" smooth="yes"/>
      <point x="1082" y="682" type="line" smooth="yes"/>
      <point x="1082" y="438"/>
      <point x="912" y="199"/>
      <point x="746" y="199" type="qcurve" smooth="yes"/>
      <point x="590" y="199"/>
      <point x="412" y="441"/>
    </contour>
    <contour>
      <point x="1131" y="-246" type="line"/>
      <point x="1299" y="-104" type="line"/>
      <point x="927" y="218" type="line"/>
      <point x="787" y="53" type="line"/>
    </contour>
  </outline>
</glyph>
<glyph name="R" format="1">
  <advance width="1291"/>
  <unicode hex="0052"/>
  <outline>
    <contour>
      <point x="170" y="0" type="line"/>
      <point x="458" y="0" type="line"/>
      <point x="458" y="565" type="line"/>
      <point x="801" y="565" type="line"/>
      <point x="987" y="599"/>
      <point x="1192" y="833"/>
      <point x="1192" y="1007" type="qcurve" smooth="yes"/>
      <point x="1192" y="1218"/>
      <point x="933" y="1456"/>
      <point x="678" y="1456" type="qcurve" smooth="yes"/>
      <point x="170" y="1456" type="line"/>
    </contour>
    <contour>
      <point x="458" y="777" type="line"/>
      <point x="458" y="1243" type="line"/>
      <point x="659" y="1243" type="line" smooth="yes"/>
      <point x="786" y="1243"/>
      <point x="909" y="1121"/>
      <point x="909" y="1007" type="qcurve" smooth="yes"/>
      <point x="909" y="904"/>
      <point x="781" y="777"/>
      <point x="665" y="777" type="qcurve" smooth="yes"/>
    </contour>
    <contour>
      <point x="942" y="0" type="line"/>
      <point x="1250" y="0" type="line"/>
      <point x="932" y="661" type="line"/>
      <point x="642" y="661" type="line"/>
    </contour>
  </outline>
</glyph>
<glyph name="S" format="1">
  <advance width="1259"/>
  <unicode hex="0053"/>
  <outline>
    <contour>
      <point x="88" y="380" type="line" smooth="yes"/>
      <point x="88" y="184"/>
      <point x="384" y="-25"/>
      <point x="647" y="-25" type="qcurve" smooth="yes"/>
      <point x="904" y="-25"/>
      <point x="1184" y="202"/>
      <point x="1184" y="402" type="qcurve" smooth="yes"/>
      <point x="1184" y="580"/>
      <point x="942" y="777"/>
      <point x="743" y="861" type="qcurve" smooth="yes"/>
      <point x="527" y="943"/>
      <point x="407" y="1036"/>
      <point x="407" y="1108" type="qcurve" smooth="yes"/>
      <point x="407" y="1182"/>
      <point x="522" y="1260"/>
      <point x="632" y="1260" type="qcurve" smooth="yes"/>
      <point x="753" y="1260"/>
      <point x="870" y="1177"/>
      <point x="870" y="1085" type="qcurve" smooth="yes"/>
      <point x="870" y="1055" type="line"/>
      <point x="1158" y="1055" type="line"/>
      <point x="1158" y="1086" type="line" smooth="yes"/>
      <point x="1158" y="1245"/>
      <point x="903" y="1481"/>
      <point x="640" y="1481" type="qcurve" smooth="yes"/>
      <point x="376" y="1481"/>
      <point x="117" y="1244"/>
      <point x="117" y="1065" type="qcurve" smooth="yes"/>
      <point x="117" y="900"/>
      <point x="333" y="712"/>
      <point x="567" y="620" type="qcurve" smooth="yes"/>
      <point x="773" y="540"/>
      <point x="894" y="434"/>
      <point x="894" y="351" type="qcurve" smooth="yes"/>
      <point x="894" y="274"/>
      <point x="768" y="191"/>
      <point x="638" y="191" type="qcurve" smooth="yes"/>
      <point x="510" y="191"/>
      <point x="376" y="278"/>
      <point x="376" y="385" type="qcurve" smooth="yes"/>
      <point x="376" y="405" type="line"/>
      <point x="88" y="405" type="line"/>
    </contour>
  </outline>
</glyph>
<glyph name="T" format="1">
  <advance width="1213"/>
  <unicode hex="0054"/>
  <outline>
    <contour>
      <point x="24" y="1243" type="line"/>
      <point x="463" y="1243" type="line"/>
      <point x="463" y="0" type="line"/>
      <point x="750" y="0" type="line"/>
      <point x="750" y="1243" type="line"/>
      <point x="1189" y="1243" type="line"/>
      <point x="1189" y="1456" type="line"/>
      <point x="24" y="1456" type="line"/>
    </contour>
  </outline>
</glyph>
<glyph name="U" format="1">
  <advance width="1361"/>
  <unicode hex="0055"/>
  <outline>
    <contour>
      <point x="132" y="452" type="line" smooth="yes"/>
      <point x="132" y="227"/>
      <point x="432" y="-25"/>
      <point x="679" y="-25" type="qcurve" smooth="yes"/>
      <point x="919" y="-25"/>
      <point x="1229" y="231"/>
      <point x="1229" y="452" type="qcurve" smooth="yes"/>
      <point x="1229" y="1456" type="line"/>
      <point x="941" y="1456" type="line"/>
      <point x="941" y="517" type="line" smooth="yes"/>
      <point x="941" y="337"/>
      <point x="801" y="198"/>
      <point x="680" y="198" type="qcurve" smooth="yes"/>
      <point x="559" y="198"/>
      <point x="420" y="337"/>
      <point x="420" y="517" type="qcurve" smooth="yes"/>
      <point x="420" y="1456" type="line"/>
      <point x="132" y="1456" type="line"/>
    </contour>
    <contour>
      <point x="682" y="1432" type="move" name="top"/>
    </contour>
  </outline>
</glyph>
<glyph name="V" format="1">
  <advance width="1253"/>
  <unicode hex="0056"/>
  <outline>
    <contour>
      <point x="28" y="1456" type="line"/>
      <point x="479" y="-10" type="line"/>
      <point x="774" y="-10" type="line"/>
      <point x="1225" y="1456" type="line"/>
      <point x="990" y="1456" type="line"/>
      <point x="692" y="483" type="line" smooth="yes"/>
      <point x="678" y="431"/>
      <point x="662" y="333"/>
      <point x="660" y="314" type="qcurve"/>
      <point x="650" y="314" type="line"/>
      <point x="648" y="332"/>
      <point x="630" y="430"/>
      <point x="615" y="485" type="qcurve" smooth="yes"/>
      <point x="320" y="1456" type="line"/>
    </contour>
  </outline>
</glyph>
<glyph name="W" format="1">
  <advance width="1825"/>
  <unicode hex="0057"/>
  <outline>
    <contour>
      <point x="344" y="-10" type="line"/>
      <point x="666" y="-10" type="line"/>
      <point x="896" y="945" type="line"/>
      <point x="905" y="997"/>
      <point x="913" y="1114"/>
      <point x="915" y="1149" type="qcurve"/>
      <point x="929" y="1149" type="line"/>
      <point x="929" y="1114"/>
      <point x="944" y="995"/>
      <point x="955" y="944" type="qcurve" smooth="yes"/>
      <point x="1164" y="-10" type="line"/>
      <point x="1482" y="-10" type="line"/>
      <point x="1772" y="1456" type="line"/>
      <point x="1544" y="1456" type="line"/>
      <point x="1370" y="538" type="line" smooth="yes"/>
      <point x="1359" y="472"/>
      <point x="1350" y="318"/>
      <point x="1348" y="290" type="qcurve"/>
      <point x="1343" y="290" type="line"/>
      <point x="1340" y="318"/>
      <point x="1328" y="476"/>
      <point x="1315" y="542" type="qcurve" smooth="yes"/>
      <point x="1113" y="1456" type="line"/>
      <point x="782" y="1456" type="line"/>
      <point x="563" y="539" type="line" smooth="yes"/>
      <point x="546" y="458"/>
      <point x="539" y="323"/>
      <point x="537" y="291" type="qcurve"/>
      <point x="529" y="291" type="line"/>
      <point x="527" y="322"/>
      <point x="521" y="458"/>
      <point x="508" y="537" type="qcurve" smooth="yes"/>
      <point x="336" y="1456" type="line"/>
      <point x="53" y="1456" type="line"/>
    </contour>
  </outline>
</glyph>
<glyph name="Y" format="1">
  <advance width="1191"/>
  <unicode hex="0059"/>
  <outline>
    <contour>
      <point x="447" y="0" type="line"/>
      <point x="735" y="0" type="line"/>
      <point x="735" y="510" type="line"/>
      <point x="1175" y="1456" type="line"/>
      <point x="928" y="1456" type="line"/>
      <point x="707" y="969" type="line"/>
      <point x="681" y="902"/>
      <point x="638" y="795"/>
      <point x="632" y="770" type="qcurve"/>
      <point x="622" y="770" type="line"/>
      <point x="616" y="797"/>
      <point x="562" y="927"/>
      <point x="539" y="983" type="qcurve" smooth="yes"/>
      <point x="320" y="1456" type="line"/>
      <point x="16" y="1456" type="line"/>
      <point x="447" y="531" type="line"/>
    </contour>
    <contour>
      <point x="682" y="1432" type="move" name="top"/>
    </contour>
  </outline>
</glyph>
<glyph name="Z" format="1">
  <advance width="1074"/>
  <unicode hex="005A"/>
  <outline>
    <contour>
      <point x="36" y="0" type="line"/>
      <point x="1038" y="0" type="line"/>
      <point x="1038" y="212" type="line"/>
      <point x="398" y="212" type="line"/>
      <point x="1012" y="1303" type="line"/>
      <point x="1012" y="1456" type="line"/>
      <point x="47" y="1456" type="line"/>
      <point x="47" y="1243" type="line"/>
      <point x="668" y="1243" type="line"/>
      <point x="36" y="137" type="line"/>
    </contour>
  </outline>
</glyph>
<glyph name="a" format="1">
  <advance width="1179"/>
  <unicode hex="0061"/>
  <outline>
    <contour>
      <point x="91" y="322" type="qcurve" smooth="yes"/>
      <point x="91" y="155"/>
      <point x="303" y="-21"/>
      <point x="474" y="-21" type="qcurve" smooth="yes"/>
      <point x="605" y="-21"/>
      <point x="745" y="87"/>
      <point x="775" y="138" type="qcurve"/>
      <point x="775" y="101"/>
      <point x="791" y="31"/>
      <point x="807" y="1" type="qcurve"/>
      <point x="1077" y="1" type="line"/>
      <point x="1077" y="-7" type="line"/>
      <point x="1057" y="41"/>
      <point x="1040" y="157"/>
      <point x="1040" y="243" type="qcurve" smooth="yes"/>
      <point x="1040" y="750" type="line" smooth="yes"/>
      <point x="1040" y="922"/>
      <point x="825" y="1112"/>
      <point x="602" y="1112" type="qcurve" smooth="yes"/>
      <point x="379" y="1112"/>
      <point x="150" y="921"/>
      <point x="150" y="796" type="qcurve" smooth="yes"/>
      <point x="150" y="772" type="line"/>
      <point x="427" y="772" type="line"/>
      <point x="427" y="797" type="line" smooth="yes"/>
      <point x="427" y="849"/>
      <point x="500" y="905"/>
      <point x="598" y="905" type="qcurve" smooth="yes"/>
      <point x="695" y="905"/>
      <point x="764" y="822"/>
      <point x="764" y="740" type="qcurve" smooth="yes"/>
      <point x="764" y="689" type="line"/>
      <point x="543" y="689" type="line" smooth="yes"/>
      <point x="348" y="689"/>
      <point x="91" y="500"/>
    </contour>
    <contour>
      <point x="377" y="342" type="qcurve" smooth="yes"/>
      <point x="377" y="429"/>
      <point x="488" y="500"/>
      <point x="610" y="500" type="qcurve" smooth="yes"/>
      <point x="764" y="500" type="line"/>
      <point x="764" y="376" type="line"/>
      <point x="757" y="311"/>
      <point x="642" y="188"/>
      <point x="542" y="188" type="qcurve" smooth="yes"/>
      <point x="448" y="188"/>
      <point x="377" y="267"/>
    </contour>
    <contour>
      <point x="563" y="1052" type="move" name="top"/>
    </contour>
  </outline>
</glyph>
<glyph name="b" format="1">
  <advance width="1270"/>
  <unicode hex="0062"/>
  <outline>
    <contour>
      <point x="136" y="0" type="line"/>
      <point x="420" y="0" type="line"/>
      <point x="430" y="139" type="line"/>
      <point x="430" y="139" type="line"/>
      <point x="475" y="73"/>
      <point x="642" y="-20"/>
      <point x="758" y="-20" type="qcurve" smooth="yes"/>
      <point x="954" y="-20"/>
      <point x="1190" y="304"/>
      <point x="1190" y="533" type="qcurve" smooth="yes"/>
      <point x="1190" y="579" type="line" smooth="yes"/>
      <point x="1190" y="821"/>
      <point x="954" y="1112"/>
      <point x="756" y="1112" type="qcurve" smooth="yes"/>
      <point x="643" y="1112"/>
      <point x="489" y="1028"/>
      <point x="446" y="966" type="qcurve"/>
      <point x="446" y="1536" type="line"/>
      <point x="136" y="1536" type="line"/>
    </contour>
    <contour>
      <point x="446" y="363" type="qcurve"/>
      <point x="446" y="746" type="line"/>
      <point x="465" y="801"/>
      <point x="576" y="890"/>
      <point x="663" y="890" type="qcurve" smooth="yes"/>
      <point x="777" y="890"/>
      <point x="870" y="731"/>
      <point x="870" y="579" type="qcurve" smooth="yes"/>
      <point x="870" y="533" type="line" smooth="yes"/>
      <point x="870" y="374"/>
      <point x="777" y="193"/>
      <point x="665" y="193" type="qcurve" smooth="yes"/>
      <point x="579" y="193"/>
      <point x="467" y="298"/>
    </contour>
  </outline>
</glyph>
<glyph name="d" format="1">
  <advance width="1270"/>
  <unicode hex="0064"/>
  <outline>
    <contour>
      <point x="80" y="506" type="line" smooth="yes"/>
      <point x="80" y="280"/>
      <point x="346" y="-22"/>
      <point x="541" y="-22" type="qcurve" smooth="yes"/>
      <point x="662" y="-22"/>
      <point x="814" y="77"/>
      <point x="844" y="135" type="qcurve"/>
      <point x="844" y="135" type="line"/>
      <point x="853" y="0" type="line"/>
      <point x="1134" y="0" type="line"/>
      <point x="1134" y="1536" type="line"/>
      <point x="824" y="1536" type="line"/>
      <point x="824" y="982" type="line"/>
      <point x="794" y="1027"/>
      <point x="658" y="1108"/>
      <point x="539" y="1108" type="qcurve" smooth="yes"/>
      <point x="354" y="1108"/>
      <point x="80" y="796"/>
      <point x="80" y="579" type="qcurve" smooth="yes"/>
    </contour>
    <contour>
      <point x="400" y="509" type="qcurve" smooth="yes"/>
      <point x="400" y="583" type="line" smooth="yes"/>
      <point x="400" y="724"/>
      <point x="516" y="900"/>
      <point x="625" y="900" type="qcurve" smooth="yes"/>
      <point x="698" y="900"/>
      <point x="807" y="820"/>
      <point x="824" y="768" type="qcurve"/>
      <point x="824" y="326" type="line"/>
      <point x="804" y="278"/>
      <point x="708" y="187"/>
      <point x="619" y="187" type="qcurve" smooth="yes"/>
      <point x="508" y="187"/>
      <point x="400" y="371"/>
    </contour>
  </outline>
</glyph>
<glyph name="f" format="1">
  <advance width="664"/>
  <unicode hex="0066"/>
  <outline>
    <contour>
      <point x="167" y="0" type="line"/>
      <point x="477" y="0" type="line"/>
      <point x="477" y="1003" type="line"/>
      <point x="458" y="1033" type="line"/>
      <point x="458" y="1197" type="line" smooth="yes"/>
      <point x="458" y="1272"/>
      <point x="508" y="1338"/>
      <point x="576" y="1338" type="qcurve" smooth="yes"/>
      <point x="608" y="1338"/>
      <point x="687" y="1330"/>
      <point x="712" y="1323" type="qcurve"/>
      <point x="721" y="1535" type="line"/>
      <point x="677" y="1548"/>
      <point x="574" y="1563"/>
      <point x="493" y="1563" type="qcurve" smooth="yes"/>
      <point x="344" y="1563"/>
      <point x="167" y="1374"/>
      <point x="167" y="1207" type="qcurve" smooth="yes"/>
    </contour>
    <contour>
      <point x="6" y="883" type="line"/>
      <point x="670" y="883" type="line"/>
      <point x="670" y="1081" type="line"/>
      <point x="322" y="1081" type="line"/>
      <point x="295" y="1081" type="line"/>
      <point x="6" y="1081" type="line"/>
    </contour>
  </outline>
</glyph>
<glyph name="j" format="1">
  <advance width="606"/>
  <unicode hex="006A"/>
  <outline>
    <contour>
      <point x="-185" y="-406" type="line"/>
      <point x="-146" y="-421"/>
      <point x="-8" y="-436"/>
      <point x="59" y="-436" type="qcurve" smooth="yes"/>
      <point x="256" y="-436"/>
      <point x="470" y="-187"/>
      <point x="470" y="-28" type="qcurve" smooth="yes"/>
      <point x="470" y="1081" type="line"/>
      <point x="160" y="1081" type="line"/>
      <point x="160" y="-33" type="line" smooth="yes"/>
      <point x="160" y="-107"/>
      <point x="86" y="-198"/>
      <point x="15" y="-198" type="qcurve" smooth="yes"/>
      <point x="-41" y="-198"/>
      <point x="-136" y="-186"/>
      <point x="-185" y="-170" type="qcurve"/>
    </contour>
    <contour>
      <point x="132" y="1392" type="qcurve"/>
      <point x="133" y="1316"/>
      <point x="225" y="1233"/>
      <point x="310" y="1233" type="qcurve" smooth="yes"/>
      <point x="398" y="1233"/>
      <point x="491" y="1316"/>
      <point x="490" y="1392" type="qcurve"/>
      <point x="491" y="1470"/>
      <point x="398" y="1553"/>
      <point x="310" y="1553" type="qcurve" smooth="yes"/>
      <point x="225" y="1553"/>
      <point x="133" y="1470"/>
    </contour>
  </outline>
</glyph>
<glyph name="k" format="1">
  <advance width="1106"/>
  <unicode hex="006B"/>
  <outline>
    <contour>
      <point x="136" y="0" type="line"/>
      <point x="446" y="0" type="line"/>
      <point x="446" y="333" type="line"/>
      <point x="1076" y="1081" type="line"/>
      <point x="787" y="1081" type="line"/>
      <point x="446" y="645" type="line"/>
      <point x="446" y="1536" type="line"/>
      <point x="136" y="1536" type="line"/>
    </contour>
    <contour>
      <point x="805" y="0" type="line"/>
      <point x="1139" y="0" type="line"/>
      <point x="676" y="747" type="line"/>
      <point x="472" y="536" type="line"/>
    </contour>
  </outline>
</glyph>
<glyph name="l" format="1">
  <advance width="590"/>
  <unicode hex="006C"/>
  <outline>
    <contour>
      <point x="140" y="0" type="line"/>
      <point x="450" y="0" type="line"/>
      <point x="450" y="1536" type="line"/>
      <point x="140" y="1536" type="line"/>
    </contour>
  </outline>
</glyph>
<glyph name="m" format="1">
  <advance width="1875"/>
  <unicode hex="006D"/>
  <outline>
    <contour>
      <point x="136" y="0" type="line"/>
      <point x="446" y="0" type="line"/>
      <point x="446" y="762" type="line"/>
      <point x="461" y="807"/>
      <point x="557" y="898"/>
      <point x="640" y="898" type="qcurve" smooth="yes"/>
      <point x="719" y="898"/>
      <point x="789" y="798"/>
      <point x="789" y="721" type="qcurve" smooth="yes"/>
      <point x="789" y="0" type="line"/>
      <point x="1099" y="0" type="line"/>
      <point x="1099" y="760" type="line"/>
      <point x="1119" y="815"/>
      <point x="1212" y="899"/>
      <point x="1288" y="899" type="qcurve" smooth="yes"/>
      <point x="1365" y="899"/>
      <point x="1441" y="804"/>
      <point x="1441" y="721" type="qcurve" smooth="yes"/>
      <point x="1441" y="0" type="line"/>
      <point x="1751" y="0" type="line"/>
      <point x="1751" y="742" type="line" smooth="yes"/>
      <point x="1751" y="914"/>
      <point x="1548" y="1111"/>
      <point x="1388" y="1111" type="qcurve" smooth="yes"/>
      <point x="1258" y="1111"/>
      <point x="1091" y="1011"/>
      <point x="1052" y="956" type="qcurve"/>
      <point x="1052" y="956" type="line"/>
      <point x="1027" y="1021"/>
      <point x="887" y="1110"/>
      <point x="768" y="1111" type="qcurve" smooth="yes"/>
      <point x="636" y="1112"/>
      <point x="476" y="1017"/>
      <point x="439" y="959" type="qcurve"/>
      <point x="425" y="959" type="line"/>
      <point x="416" y="1081" type="line"/>
      <point x="136" y="1081" type="line"/>
    </contour>
  </outline>
</glyph>
<glyph name="n" format="1">
  <advance width="1228"/>
  <unicode hex="006E"/>
  <outline>
    <contour>
      <point x="136" y="0" type="line"/>
      <point x="446" y="0" type="line"/>
      <point x="446" y="773" type="line"/>
      <point x="467" y="821"/>
      <point x="564" y="889"/>
      <point x="653" y="889" type="qcurve" smooth="yes"/>
      <point x="729" y="889"/>
      <point x="794" y="799"/>
      <point x="794" y="733" type="qcurve" smooth="yes"/>
      <point x="794" y="0" type="line"/>
      <point x="1104" y="0" type="line"/>
      <point x="1104" y="741" type="line" smooth="yes"/>
      <point x="1104" y="921"/>
      <point x="925" y="1111"/>
      <point x="752" y="1111" type="qcurve" smooth="yes"/>
      <point x="633" y="1111"/>
      <point x="479" y="1022"/>
      <point x="431" y="959" type="qcurve"/>
      <point x="427" y="959" type="line"/>
      <point x="418" y="1081" type="line"/>
      <point x="136" y="1081" type="line"/>
    </contour>
    <contour>
      <point x="563" y="1126" type="move" name="top"/>
    </contour>
  </outline>
</glyph>
<glyph name="p" format="1">
  <advance width="1270"/>
  <unicode hex="0070"/>
  <outline>
    <contour>
      <point x="136" y="-416" type="line"/>
      <point x="446" y="-416" type="line"/>
      <point x="446" y="99" type="line"/>
      <point x="473" y="61"/>
      <point x="606" y="-19"/>
      <point x="728" y="-19" type="qcurve" smooth="yes"/>
      <point x="929" y="-19"/>
      <point x="1190" y="293"/>
      <point x="1190" y="525" type="qcurve" smooth="yes"/>
      <point x="1190" y="587" type="line" smooth="yes"/>
      <point x="1190" y="828"/>
      <point x="935" y="1112"/>
      <point x="726" y="1112" type="qcurve" smooth="yes"/>
      <point x="634" y="1112"/>
      <point x="454" y="1017"/>
      <point x="415" y="959" type="qcurve"/>
      <point x="415" y="959" type="line"/>
      <point x="405" y="1081" type="line"/>
      <point x="136" y="1081" type="line"/>
    </contour>
    <contour>
      <point x="440" y="343" type="qcurve"/>
      <point x="440" y="755" type="line"/>
      <point x="462" y="809"/>
      <point x="575" y="889"/>
      <point x="666" y="889" type="qcurve" smooth="yes"/>
      <point x="768" y="889"/>
      <point x="870" y="731"/>
      <point x="870" y="587" type="qcurve" smooth="yes"/>
      <point x="870" y="525" type="line" smooth="yes"/>
      <point x="870" y="376"/>
      <point x="767" y="193"/>
      <point x="657" y="193" type="qcurve" smooth="yes"/>
      <point x="571" y="193"/>
      <point x="460" y="286"/>
    </contour>
  </outline>
</glyph>
<glyph name="q" format="1">
  <advance width="1270"/>
  <unicode hex="0071"/>
  <outline>
    <contour>
      <point x="80" y="519" type="line" smooth="yes"/>
      <point x="80" y="264"/>
      <point x="349" y="-24"/>
      <point x="527" y="-24" type="qcurve" smooth="yes"/>
      <point x="653" y="-24"/>
      <point x="792" y="60"/>
      <point x="824" y="112" type="qcurve"/>
      <point x="824" y="-416" type="line"/>
      <point x="1134" y="-416" type="line"/>
      <point x="1134" y="1081" type="line"/>
      <point x="851" y="1081" type="line"/>
      <point x="841" y="969" type="line"/>
      <point x="841" y="969" type="line"/>
      <point x="814" y="1026"/>
      <point x="674" y="1112"/>
      <point x="562" y="1112" type="qcurve" smooth="yes"/>
      <point x="359" y="1112"/>
      <point x="80" y="825"/>
      <point x="80" y="565" type="qcurve" smooth="yes"/>
    </contour>
    <contour>
      <point x="399" y="519" type="qcurve" smooth="yes"/>
      <point x="399" y="564" type="line" smooth="yes"/>
      <point x="399" y="743"/>
      <point x="512" y="903"/>
      <point x="607" y="903" type="qcurve" smooth="yes"/>
      <point x="701" y="903"/>
      <point x="807" y="815"/>
      <point x="828" y="753" type="qcurve"/>
      <point x="828" y="342" type="line"/>
      <point x="804" y="274"/>
      <point x="698" y="183"/>
      <point x="615" y="183" type="qcurve" smooth="yes"/>
      <point x="517" y="183"/>
      <point x="399" y="335"/>
    </contour>
  </outline>
</glyph>
<glyph name="s" format="1">
  <advance width="1087"/>
  <unicode hex="0073"/>
  <outline>
    <contour>
      <point x="80" y="326" type="line"/>
      <point x="80" y="293" type="line" smooth="yes"/>
      <point x="80" y="149"/>
      <point x="313" y="-30"/>
      <point x="545" y="-31" type="qcurve" smooth="yes"/>
      <point x="765" y="-32"/>
      <point x="1017" y="151"/>
      <point x="1017" y="303" type="qcurve" smooth="yes"/>
      <point x="1017" y="472"/>
      <point x="804" y="609"/>
      <point x="640" y="661" type="qcurve" smooth="yes"/>
      <point x="470" y="715"/>
      <point x="399" y="766"/>
      <point x="399" y="807" type="qcurve" smooth="yes"/>
      <point x="399" y="855"/>
      <point x="460" y="899"/>
      <point x="546" y="899" type="qcurve" smooth="yes"/>
      <point x="630" y="899"/>
      <point x="706" y="841"/>
      <point x="706" y="788" type="qcurve" smooth="yes"/>
      <point x="706" y="772" type="line"/>
      <point x="987" y="772" type="line"/>
      <point x="987" y="799" type="line" smooth="yes"/>
      <point x="987" y="926"/>
      <point x="766" y="1118"/>
      <point x="551" y="1118" type="qcurve" smooth="yes"/>
      <point x="343" y="1118"/>
      <point x="96" y="943"/>
      <point x="96" y="805" type="qcurve" smooth="yes"/>
      <point x="96" y="679"/>
      <point x="253" y="523"/>
      <point x="487" y="451" type="qcurve" smooth="yes"/>
      <point x="641" y="404"/>
      <point x="728" y="355"/>
      <point x="728" y="300" type="qcurve" smooth="yes"/>
      <point x="728" y="247"/>
      <point x="643" y="188"/>
      <point x="549" y="188" type="qcurve" smooth="yes"/>
      <point x="455" y="188"/>
      <point x="362" y="244"/>
      <point x="362" y="307" type="qcurve" smooth="yes"/>
      <point x="362" y="326" type="line"/>
    </contour>
  </outline>
</glyph>
<glyph name="t" format="1">
  <advance width="772"/>
  <unicode hex="0074"/>
  <outline>
    <contour>
      <point x="3" y="883" type="line"/>
      <point x="738" y="883" type="line"/>
      <point x="738" y="1081" type="line"/>
      <point x="3" y="1081" type="line"/>
    </contour>
    <contour>
      <point x="186" y="279" type="line" smooth="yes"/>
      <point x="186" y="124"/>
      <point x="361" y="-30"/>
      <point x="496" y="-30" type="qcurve" smooth="yes"/>
      <point x="576" y="-30"/>
      <point x="697" y="-1"/>
      <point x="734" y="25" type="qcurve"/>
      <point x="734" y="227" type="line"/>
      <point x="701" y="208"/>
      <point x="645" y="190"/>
      <point x="598" y="190" type="qcurve" smooth="yes"/>
      <point x="549" y="190"/>
      <point x="496" y="238"/>
      <point x="496" y="309" type="qcurve" smooth="yes"/>
      <point x="496" y="1345" type="line"/>
      <point x="202" y="1345" type="line"/>
      <point x="202" y="1000" type="line"/>
      <point x="186" y="979" type="line"/>
    </contour>
  </outline>
</glyph>
<glyph name="u" format="1">
  <advance width="1228"/>
  <unicode hex="0075"/>
  <outline>
    <contour>
      <point x="126" y="335" type="line" smooth="yes"/>
      <point x="126" y="158"/>
      <point x="314" y="-19"/>
      <point x="493" y="-19" type="qcurve" smooth="yes"/>
      <point x="611" y="-19"/>
      <point x="768" y="68"/>
      <point x="805" y="126" type="qcurve"/>
      <point x="805" y="126" type="line"/>
      <point x="812" y="0" type="line"/>
      <point x="1092" y="0" type="line"/>
      <point x="1092" y="1081" type="line"/>
      <point x="782" y="1081" type="line"/>
      <point x="782" y="319" type="line"/>
      <point x="753" y="256"/>
      <point x="665" y="194"/>
      <point x="585" y="194" type="qcurve" smooth="yes"/>
      <point x="504" y="194"/>
      <point x="437" y="282"/>
      <point x="436" y="345" type="qcurve" smooth="yes"/>
      <point x="436" y="1081" type="line"/>
      <point x="126" y="1081" type="line"/>
    </contour>
    <contour>
      <point x="612" y="1081" type="move" name="top"/>
    </contour>
  </outline>
</glyph>
<glyph name="v" format="1">
  <advance width="1085"/>
  <unicode hex="0076"/>
  <outline>
    <contour>
      <point x="0" y="1081" type="line"/>
      <point x="344" y="0" type="line"/>
      <point x="714" y="0" type="line"/>
      <point x="1085" y="1081" type="line"/>
      <point x="797" y="1081" type="line"/>
      <point x="607" y="502" type="line" smooth="yes"/>
      <point x="591" y="453"/>
      <point x="554" y="309"/>
      <point x="552" y="257" type="qcurve"/>
      <point x="538" y="257" type="line"/>
      <point x="535" y="302"/>
      <point x="500" y="452"/>
      <point x="485" y="502" type="qcurve" smooth="yes"/>
      <point x="314" y="1081" type="line"/>
    </contour>
  </outline>
</glyph>
<glyph name="z" format="1">
  <advance width="979"/>
  <unicode hex="007A"/>
  <outline>
    <contour>
      <point x="68" y="0" type="line"/>
      <point x="957" y="0" type="line"/>
      <point x="957" y="200" type="line"/>
      <point x="440" y="200" type="line"/>
      <point x="940" y="968" type="line"/>
      <point x="940" y="1081" type="line"/>
      <point x="75" y="1081" type="line"/>
      <point x="75" y="881" type="line"/>
      <point x="560" y="881" type="line"/>
      <point x="68" y="127" type="line"/>
    </contour>
  </outline>
</glyph>
